<?xml version="1.0" encoding="utf-8"?>
<!-- Generator: Adobe Illustrator 16.2.1, SVG Export Plug-In . SVG Version: 6.00 Build 0)  -->
<!DOCTYPE svg PUBLIC "-//W3C//DTD SVG 1.1//EN" "http://www.w3.org/Graphics/SVG/1.1/DTD/svg11.dtd">
<svg version="1.1" id="Layer_1" xmlns="http://www.w3.org/2000/svg" xmlns:xlink="http://www.w3.org/1999/xlink" x="0px" y="0px"
	 width="199px" height="258px" viewBox="190.965 157.965 199 258" enable-background="new 190.965 157.965 199 258"
	 xml:space="preserve">
<path fill="none" stroke="#000000" stroke-width="2" stroke-miterlimit="10" d="M234.192,328.852
	c0.033-2.887,3.193-4.334,6.387-4.334c3.194,0,64.093,0,66.831,0s3.422,1.14,3.422,5.018s-5.702,24.634-16.193,27.826
	c0,0-0.229,20.302-0.229,25.548c0,5.245-0.456,8.098-4.334,8.098s-34.897,0-38.319,0s-3.193-2.853-3.193-6.957
	s0.456-26.688,0.456-26.688S233.963,349.15,234.192,328.852z"/>
<polyline fill="none" stroke="#000000" stroke-width="25" stroke-linecap="round" stroke-linejoin="round" stroke-miterlimit="10" points="
	255.177,234.192 255.177,311.287 324.973,311.287 324.973,379.102 "/>
<circle cx="254.606" cy="197.356" r="17.449"/>
<polyline fill="none" stroke="#000000" stroke-width="16" stroke-linecap="round" stroke-linejoin="round" stroke-miterlimit="10" points="
	258.37,231.456 280.723,277.53 325.885,284.145 "/>
<polyline fill="none" stroke="#000000" stroke-width="5" stroke-linecap="round" stroke-linejoin="round" stroke-miterlimit="10" points="
	368.994,238.526 343.22,293.952 286.652,294.637 "/>
<path fill="none" stroke="#000000" stroke-width="2" stroke-linecap="round" stroke-linejoin="round" stroke-miterlimit="10" d="
	M236.243,317.852c-0.478-3.849-8.287-66.774-8.68-69.943c-0.394-3.169-4.241-2.692-3.848,0.477
	c0.394,3.169,8.258,66.549,8.652,69.717C232.76,321.271,236.636,321.021,236.243,317.852z"/>
</svg>
